# xmcd
#
# Track frame offsets:
#	150
#	21465
#	45682
#	62055
#	79664
#	95495
#	113018
#	131314
#	147732
#	168488
#	185232
#	204653
#	225589
#	244979
#	262729
#	278262
#
# Disc length: 3945 seconds
#
# Revision: 1
# Processed by: cddbd v1.5.2PL0 Copyright (c) Steve Scherf et al.
# Submitted via: EZCDAudioConverter 8.0.2.1
#
DISCID=e10f6710
DTITLE=Duy Mạnh - Vol 09. Mãi Chỉ Là Người Tình
DYEAR=2011
DGENRE=World Pop
TTITLE0=Kiếp ăn chơi
TTITLE1=Người có xót thương tôi
TTITLE2=Mãi Chỉ Là Người Tình
TTITLE3=Anh nhớ em vô cùng
TTITLE4=Anh mong em sẽ có một hạnh phúc
TTITLE5=Khóc vì nhớ em
TTITLE6=Mong một lần tạ lỗi với em
TTITLE7=Mong sao người đừng ra đi
TTITLE8=Vẫn mãi thuộc về nhau
TTITLE9=Mong ngày gặp lại
TTITLE10=Sao em lại nỡ ra đi
TTITLE11=Cũng hết tin em rồi
TTITLE12=Mãi chỉ là người tình (Remix)
TTITLE13=Anh nhớ em vô cùng (Version 2)
TTITLE14=Mong sao người đừng ra đi (Version 2)
TTITLE15=Kiếp ăn chơi (Remix)
EXTD=
EXTT0=
EXTT1=
EXTT2=
EXTT3=
EXTT4=
EXTT5=
EXTT6=
EXTT7=
EXTT8=
EXTT9=
EXTT10=
EXTT11=
EXTT12=
EXTT13=
EXTT14=
EXTT15=
PLAYORDER=
